<?xml version="1.0" standalone="no"?>
<!DOCTYPE svg PUBLIC "-//W3C//DTD SVG 20010904//EN"
 "http://www.w3.org/TR/2001/REC-SVG-20010904/DTD/svg10.dtd">
<svg version="1.0" xmlns="http://www.w3.org/2000/svg"
 width="498.000000pt" height="498.000000pt" viewBox="0 0 498.000000 498.000000"
 preserveAspectRatio="xMidYMid meet">
<metadata>
Created by potrace 1.14, written by Peter Selinger 2001-2017
</metadata>
<g transform="translate(0.000000,498.000000) scale(0.100000,-0.100000)"
fill="#000000" stroke="none">
<path d="M1 2500 l0 -2479 2480 0 c1475 0 2478 3 2474 9 -3 5 -1 12 5 15 8 5
8 11 0 20 -6 7 -7 16 -2 19 9 5 8 59 -3 75 -3 6 -2 11 3 11 7 0 8 33 2 50 -1
3 -1 10 0 15 6 26 4 555 -2 555 -4 0 -3 13 2 28 4 16 4 36 -2 45 -5 10 -5 17
-1 17 9 0 9 181 -1 205 -3 9 -2 14 2 11 6 -3 8 70 2 84 -1 3 -1 10 0 15 7 29
4 555 -3 555 -5 0 -5 5 -2 11 10 14 10 242 1 257 -4 7 -3 12 3 12 7 0 7 8 2
23 -5 12 -5 32 0 44 5 13 4 25 -1 28 -6 4 -7 14 -2 23 4 9 6 67 5 127 -2 61
-3 124 -2 140 4 120 3 295 -3 295 -4 0 -3 13 2 28 4 16 4 36 -2 45 -5 10 -5
17 -1 17 9 0 9 181 -1 205 -3 9 -2 14 2 11 6 -3 8 70 2 84 -1 3 -1 10 0 15 7
29 4 555 -3 555 -5 0 -5 5 -2 11 10 15 10 282 1 297 -4 7 -3 12 1 12 10 0 10
41 0 56 -3 5 -3 15 1 21 4 6 6 62 4 125 -1 62 -2 127 -1 143 4 114 3 295 -3
295 -4 0 -3 13 2 28 4 16 4 36 -2 45 -5 10 -5 17 -1 17 9 0 9 181 -1 205 -3 9
-2 14 2 11 4 -2 7 7 7 20 l0 24 -2482 -1 -2482 0 0 -2479z m1329 1166 c0 -3
-4 -8 -10 -11 -5 -3 -10 -1 -10 4 0 6 5 11 10 11 6 0 10 -2 10 -4z m0 -482 c0
-8 -19 -13 -24 -6 -3 5 1 9 9 9 8 0 15 -2 15 -3z"/>
</g>
</svg>
